<svg width="114" height="40" viewBox="0 0 114 40" fill="none" xmlns="http://www.w3.org/2000/svg">
<path d="M10.7251 22.0176L0 0.612583H3.98794L12.7304 18.0032L10.7251 22.0176ZM24.1505 22.0176L17.4133 8.6149L19.4186 4.60052L24.1505 14.0115L30.865 0.608803H34.853L24.1505 22.0176Z" fill="#161616"/>
<path d="M51.7904 4.19259H37.5267V0.608727H51.7904V4.19259ZM51.7904 13.105H37.5267V9.54384H51.7904V13.105ZM51.7904 18.4336V22.0175H37.5267V18.4336H51.7904Z" fill="#161616"/>
<path d="M68.7277 18.4337V22.0176H54.464V0.612587H58.0252V18.4337H68.7277Z" fill="#161616"/>
<path d="M89.657 3.76593C91.7756 5.88452 92.833 8.39965 92.833 11.3151C92.833 14.2758 91.7719 16.7947 89.657 18.8642C87.5233 20.9677 85.0082 22.0176 82.1079 22.0176C79.2076 22.0176 76.6925 20.9677 74.5588 18.8642C72.4553 16.7305 71.4054 14.2154 71.4054 11.3151C71.4054 8.41476 72.4553 5.89963 74.5588 3.76593C76.6283 1.66244 79.1472 0.612587 82.1079 0.612587C85.0044 0.612587 87.5233 1.66244 89.657 3.76593ZM77.0437 6.2735C75.6728 7.65946 74.9893 9.33999 74.9893 11.3151C74.9893 13.3053 75.6728 14.9933 77.0437 16.3793C78.4296 17.7502 80.1177 18.4337 82.1079 18.4337C84.083 18.4337 85.7635 17.7502 87.1495 16.3793C88.5354 14.9782 89.2265 13.2902 89.2265 11.3151C89.2265 9.3551 88.5354 7.67457 87.1495 6.2735C85.7484 4.88754 84.0679 4.19644 82.1079 4.19644C80.1328 4.19267 78.4447 4.88754 77.0437 6.2735Z" fill="#161616"/>
<path d="M111.277 16.3528L113.811 18.8377C112.825 19.8234 111.685 20.5975 110.393 21.1565C109.136 21.7154 107.75 21.991 106.236 21.991C104.755 21.991 103.377 21.704 102.104 21.13C100.831 20.6051 99.6834 19.8385 98.6637 18.8377C97.6592 17.8181 96.8964 16.6965 96.3714 15.4691C95.7974 14.1473 95.5104 12.7614 95.5104 11.3112V11.2886C95.5104 9.82329 95.7974 8.43733 96.3714 7.13067C96.9303 5.85801 97.6932 4.73262 98.6637 3.76207C99.6834 2.75753 100.828 1.99469 102.104 1.46976C103.377 0.895743 104.755 0.608727 106.236 0.608727C107.75 0.608727 109.136 0.888187 110.393 1.44333C111.685 2.00224 112.822 2.77264 113.811 3.76207L111.277 6.24698C109.861 4.87613 108.18 4.19259 106.236 4.19259C105.265 4.19259 104.34 4.36631 103.464 4.71752C102.557 5.11783 101.791 5.6352 101.171 6.26964C100.518 6.95318 100.016 7.71225 99.6645 8.5393C99.2831 9.40033 99.0905 10.3142 99.0905 11.2848C99.0905 12.2402 99.2831 13.1655 99.6645 14.0567C100.016 14.9026 100.518 15.6504 101.171 16.3037C101.904 17.0363 102.667 17.5537 103.464 17.8558C104.325 18.2221 105.246 18.4072 106.236 18.4072C108.177 18.4072 109.857 17.7237 111.277 16.3528ZM114 9.54384V13.105H106.213V9.54384H114Z" fill="#161616"/>
<path d="M54.7169 32.9883C54.1769 33.2677 53.8295 33.634 53.3499 33.7851C53.0968 33.8644 52.8589 33.9475 52.6361 33.7247C52.4057 33.4943 52.4057 33.2451 52.5379 32.9618C52.6059 32.8183 52.7683 32.6522 52.6361 32.4973C52.5039 32.3463 52.3189 32.4784 52.1565 32.5049C51.3408 32.637 50.5326 32.8712 49.6905 32.7503C49.4299 32.7126 49.3053 32.8938 49.1618 33.0449C48.8974 33.3206 48.6708 33.6416 48.3007 33.7964C47.7456 34.0343 47.3151 33.7926 47.3717 33.1997C47.4246 32.6484 47.2055 32.739 46.8845 32.8901C45.9744 33.313 45.0454 33.6756 44.0447 33.8493C42.9042 34.0494 42.4359 33.5661 42.7644 32.4596C43.0779 31.4059 43.6783 30.4882 44.2297 29.5479C44.7697 28.6265 45.3324 27.7201 45.9027 26.8175C46.0122 26.6476 46.1066 26.2699 46.3898 26.4663C46.6617 26.6551 46.3558 26.8855 46.2463 27.063C45.34 28.5358 44.4185 30.0011 43.6179 31.5343C43.4027 31.9497 43.1836 32.3651 43.1119 32.841C43.0477 33.2677 43.2025 33.4868 43.6595 33.4868C44.0522 33.4868 44.4299 33.4037 44.7811 33.2639C46.0613 32.7579 47.4208 32.4256 48.4442 31.3908C48.8445 30.9867 49.5356 31.2435 49.6074 31.8213C49.6678 32.3009 49.8868 32.3802 50.2834 32.3463C51.6089 32.2367 52.9231 32.1234 53.973 31.1453C54.3431 30.8017 54.8302 30.7639 55.2003 31.1038C55.4458 31.3266 55.9556 31.0585 55.9632 31.4815C55.9669 31.7685 55.7064 32.0517 55.5742 32.3425C55.4533 32.6106 55.2532 32.8448 55.2192 33.1506C55.3514 33.2677 55.4684 33.196 55.578 33.1393C56.5523 32.6446 57.5833 32.2972 58.6067 31.9271C58.7275 31.8818 58.8446 31.8213 58.9692 31.7987C59.26 31.7496 59.5206 31.2473 59.7056 31.4701C59.9435 31.7534 59.479 32.0404 59.3506 32.3425C59.2071 32.6899 58.7917 33.0638 59.0032 33.3735C59.2185 33.6907 59.6943 33.3886 60.0153 33.2942C61.6127 32.8334 63.2026 32.3349 64.6566 31.4928C65.291 31.1265 65.9897 30.9188 66.7261 30.8734C67.0395 30.8546 67.3718 30.8923 67.387 31.2964C67.3983 31.6552 67.1113 31.8667 66.8205 32.0102C66.643 32.097 66.6014 31.9309 66.6392 31.7987C66.6845 31.6401 66.7676 31.4928 66.8771 31.2473C66.152 31.3568 65.5327 31.4966 64.7887 31.9082C65.748 32.1386 66.4466 32.6559 67.3681 32.3954C68.2291 32.1499 69.1203 32.0215 69.9965 31.8402C70.3817 31.7609 70.8084 31.7836 70.9406 31.2511C71.0917 30.6506 71.0954 30.1068 70.6083 29.6537C70.1513 29.2269 69.5773 29.0683 68.9768 28.9814C68.3197 28.887 67.6626 28.819 66.998 28.8304C66.8431 28.8341 66.6052 28.8946 66.5939 28.6453C66.575 28.3432 66.8394 28.4074 67.0131 28.4074C68.5916 28.4036 70.174 28.3885 71.7525 28.4225C72.3303 28.4338 72.7118 28.2903 72.961 27.7277C73.2027 27.1838 73.5501 26.6891 73.8447 26.168C73.9353 26.0094 74.06 25.8394 74.2375 25.9414C74.4527 26.0622 74.2677 26.2473 74.1997 26.3757C73.9353 26.8628 73.6597 27.3462 73.3689 27.8183C73.1121 28.2337 73.1574 28.4263 73.6974 28.4263C75.1287 28.4263 76.56 28.4414 77.9875 28.4716C78.2518 28.4754 78.7163 28.3394 78.705 28.7397C78.6974 29.0494 78.2443 28.9248 77.9875 28.9323C76.492 28.9739 75.0003 28.9739 73.5086 28.8342C72.9874 28.7851 72.708 28.9814 72.4625 29.4497C70.8877 32.4558 69.3847 35.4958 68.0176 38.6039C67.9648 38.7209 67.9119 38.838 67.8552 38.9513C67.7721 39.125 67.674 39.3705 67.4549 39.261C67.2095 39.1401 67.4172 38.9135 67.4851 38.7587C68.3273 36.7987 69.2148 34.8576 70.1815 32.9505C70.2759 32.7654 70.4685 32.5275 70.3477 32.3651C70.1966 32.165 69.9134 32.2972 69.6868 32.3425C69.2487 32.4256 68.8069 32.5049 68.3688 32.5993C67.5493 32.7806 66.7223 32.875 66.1596 33.6793C65.8197 34.1665 65.2042 34.3969 64.6037 34.4951C64.2676 34.5479 63.8333 34.699 63.6785 34.2081C63.535 33.7549 63.8862 33.5547 64.2185 33.3886C64.5055 33.2488 64.8152 33.1544 65.1022 33.0185C65.2797 32.9316 65.5365 32.9543 65.6347 32.6559C64.9549 32.3991 64.3356 32.165 63.5727 32.4973C62.285 33.0562 60.9707 33.5736 59.5735 33.8191C59.2411 33.8757 58.8899 34.0343 58.618 33.7096C58.3461 33.3848 58.5689 33.0638 58.6671 32.7466C58.6973 32.6522 58.7162 32.5502 58.7766 32.3085C57.2963 32.8297 55.9141 33.2942 54.698 34.1363C54.5206 34.2572 54.4337 34.5177 54.3204 34.7217C53.5727 36.0887 52.8287 37.4634 51.7751 38.6303C51.5296 38.9022 51.2841 39.1665 50.9405 39.3138C50.3816 39.5517 49.9359 39.2194 50.0266 38.6152C50.0908 38.1847 50.3174 37.8183 50.5515 37.4558C51.4201 36.1076 52.5492 35.0162 53.8748 34.1212C54.2789 33.8644 54.5848 33.5623 54.7169 32.9883ZM53.6369 34.9482C52.3453 35.8433 51.3106 36.9573 50.5817 38.3319C50.4835 38.517 50.374 38.7549 50.5817 38.9173C50.8045 39.091 50.982 38.8909 51.1331 38.7511C52.2811 37.6975 52.9722 36.3304 53.6369 34.9482ZM55.1248 31.7609C55.1172 31.4135 54.6641 31.2284 54.3242 31.4324C53.7237 31.7911 53.3083 32.3236 53.0137 32.9543C52.9533 33.0864 52.8929 33.2488 53.0289 33.3697C53.1686 33.4943 53.3196 33.3772 53.4367 33.313C54.0447 32.9883 54.5545 32.5464 54.9888 32.0139C55.0568 31.9309 55.0908 31.8289 55.1248 31.7609ZM70.5176 28.8379C70.4988 28.8833 70.4836 28.9323 70.4685 28.9777C70.5969 29.0796 70.7291 29.1703 70.8462 29.2798C70.9708 29.3931 71.0917 29.5177 71.1936 29.6499C71.6355 30.2163 71.6355 30.2163 71.9451 29.6008C72.3266 28.8417 72.3266 28.8417 71.4693 28.8379C71.1521 28.8379 70.8349 28.8379 70.5176 28.8379ZM48.8785 32.6861C48.7766 32.4293 48.5613 32.2896 48.3725 32.3274C47.9193 32.418 47.8891 32.8599 47.7947 33.2148C47.7494 33.3848 47.8891 33.5094 48.0704 33.4301C48.4253 33.2753 48.701 33.0185 48.8785 32.6861ZM64.1165 34.0343C64.8567 34.0985 65.5516 33.7851 65.8424 33.2451C65.2306 33.4528 64.5886 33.4981 64.1165 34.0343Z" fill="#161616"/>
<path d="M86.3334 31.285C85.6197 31.3416 85.0004 31.5116 84.2677 31.9119C85.2421 32.146 85.9709 32.6558 86.9339 32.3915C87.9347 32.1158 88.977 31.9798 90.0042 31.7835C90.1817 31.7495 90.4385 31.6286 90.4989 31.8817C90.5669 32.1611 90.2647 32.1271 90.0986 32.1611C88.9959 32.399 87.8931 32.6294 86.7828 32.8484C86.4316 32.9164 86.1786 33.0599 85.9558 33.3658C85.5026 33.9927 84.8418 34.3552 84.0827 34.495C83.7617 34.5516 83.3538 34.6536 83.1877 34.2344C83.0102 33.785 83.3576 33.5622 83.6899 33.4036C84.1809 33.1694 84.6907 32.9731 85.3214 32.7087C84.4603 32.3764 83.7843 32.146 82.9762 32.5765C81.7904 33.2072 80.5101 33.6377 79.1733 33.8492C78.9014 33.8907 78.6181 33.9172 78.3462 33.8907C77.9573 33.8568 77.7722 33.5924 77.6702 33.2261C77.6023 32.9806 77.9761 32.637 77.5758 32.5237C77.3757 32.467 77.1038 32.6747 76.8659 32.7691C75.7556 33.211 74.634 33.6188 73.4557 33.8416C73.1423 33.9021 72.8099 33.9927 72.5683 33.6868C72.3454 33.4074 72.4889 33.109 72.5909 32.8371C72.7646 32.3764 73.029 31.961 73.3311 31.5682C73.418 31.4549 73.5312 31.3001 73.6974 31.436C73.822 31.538 73.7276 31.674 73.6672 31.7797C73.4519 32.1724 73.214 32.5539 73.0176 32.9542C72.8439 33.3092 72.8893 33.5509 73.3764 33.4376C75.2118 33.0146 76.9867 32.4217 78.6257 31.4814C78.8863 31.3341 79.128 31.149 79.4301 31.1037C79.8417 31.0433 80.0796 31.3416 79.9701 31.7344C79.9323 31.8666 79.8719 31.9874 79.736 32.0101C79.5283 32.0478 79.5736 31.8666 79.5509 31.757C79.4867 31.4398 79.2979 31.5342 79.1204 31.6324C78.5917 31.9308 78.2669 32.399 78.0932 32.9693C77.9988 33.2865 78.1763 33.4678 78.4897 33.4753C78.7881 33.4829 79.094 33.4867 79.3772 33.4187C81.0011 33.0259 82.557 32.4595 83.992 31.5833C84.6794 31.1641 85.4347 30.9451 86.2277 30.8658C86.56 30.8318 86.9075 30.896 86.8773 31.353C86.8546 31.6513 86.6393 31.893 86.3788 31.9723C85.9558 32.0969 86.1333 31.8137 86.2013 31.6286C86.239 31.5267 86.2768 31.4323 86.3334 31.285ZM85.4649 33.2223C84.8229 33.3469 84.3319 33.5244 83.8674 33.7812C83.7768 33.8303 83.6597 33.8945 83.7013 34.0191C83.7428 34.1475 83.8787 34.1173 83.9732 34.0947C84.5132 33.9587 85.0155 33.7623 85.4649 33.2223Z" fill="#161616"/>
<path d="M25.9668 32.7088C25.423 33.0713 24.9585 33.4074 24.4638 33.6982C24.241 33.8304 23.9615 34.0192 23.6934 33.7888C23.4291 33.5622 23.4631 33.2639 23.565 32.9618C23.7161 32.5124 23.9313 32.097 24.2221 31.7231C24.3354 31.5796 24.4487 31.3266 24.664 31.4625C24.9094 31.6174 24.6602 31.7949 24.5809 31.9459C24.4109 32.2669 24.2183 32.5728 24.0522 32.8976C23.988 33.0222 23.8822 33.1846 24.0333 33.3054C24.1768 33.4225 24.3165 33.2979 24.4412 33.2299C25.0945 32.856 25.6647 32.3764 26.2387 31.8968C26.4729 31.7382 26.7297 31.5796 26.8128 31.6363C27.0091 31.7722 26.8317 31.9459 26.6995 32.097C26.6579 32.1461 26.386 32.418 26.3483 32.9467C26.3369 33.0977 26.3483 33.2752 26.488 33.415C26.6126 33.5396 26.775 33.4036 26.9034 33.3432C27.6474 32.9844 28.2252 32.4066 28.8143 31.8515C29.09 31.5909 29.3317 31.4739 29.7206 31.6136C30.627 31.9346 31.0349 32.0894 32.5681 31.9082C33.2743 31.7344 33.2781 31.5909 33.5915 31.3077C33.9578 30.9791 34.4752 30.643 34.8831 30.9905C35.0681 31.1491 35.1248 31.2359 35.1248 31.4739C35.121 31.9912 34.6225 32.1952 34.1995 32.3575C33.9427 32.4557 33.667 32.535 33.3951 32.5539C33.0666 32.5766 32.9269 32.7352 32.9344 33.0373C32.942 33.3583 33.1497 33.4678 33.448 33.4829C34.3015 33.5207 35.0946 33.2488 35.8725 32.9656C36.7335 32.6483 37.5644 32.2518 38.4103 31.9006C38.5651 31.8364 38.7766 31.6174 38.9012 31.8817C39.0183 32.1347 38.7237 32.1838 38.5727 32.2594C37.1414 32.9844 35.6686 33.6 34.0711 33.8644C33.8634 33.8983 33.6444 33.9248 33.4329 33.9135C32.7229 33.8719 32.3868 33.5094 32.553 32.8258C32.6852 32.2858 32.4624 32.2896 32.0545 32.2782C30.7781 32.2405 30.593 32.2556 29.6451 32.0479C29.3279 31.9799 29.1617 32.0819 28.9767 32.2745C28.5197 32.7541 28.0099 33.1808 27.4434 33.532C26.3823 34.1816 26.0122 33.989 25.9668 32.7088ZM33.4707 32.0894C34.0976 32.0743 35.053 31.708 34.7131 31.2813C34.3279 30.9149 33.7652 31.5078 33.4707 32.0894Z" fill="#161616"/>
<path d="M60.4398 30.7394C60.5221 30.5365 60.4698 30.3236 60.323 30.264C60.1761 30.2044 59.9903 30.3206 59.9079 30.5235C59.8256 30.7265 59.8779 30.9393 60.0248 30.9989C60.1716 31.0585 60.3575 30.9423 60.4398 30.7394Z" fill="#161616"/>
<path d="M74.2365 31.0148C74.2773 30.9143 74.1913 30.7846 74.0444 30.725C73.8975 30.6654 73.7454 30.6985 73.7046 30.799C73.6638 30.8995 73.7498 31.0293 73.8967 31.0889C74.0436 31.1485 74.1957 31.1153 74.2365 31.0148Z" fill="#161616"/>
</svg>
