<svg width="24" height="24" viewBox="0 0 24 24" fill="none" xmlns="http://www.w3.org/2000/svg">
<path d="M20.002 11V10C20.002 6.229 20.002 4.343 18.762 3.172C17.52 2 15.524 2 11.532 2H10.472C6.47901 2 4.48201 2 3.24201 3.172C2.00201 4.344 2.00201 6.229 2.00201 10V14C2.00201 17.771 2.00201 19.657 3.24201 20.828C4.48201 21.999 6.48001 22 10.472 22H11.002M7.00201 7H15.002M7.00201 12H15.002M20.862 14.44L21.557 15.132C21.6966 15.2711 21.8074 15.4364 21.883 15.6183C21.9585 15.8003 21.9974 15.9954 21.9974 16.1925C21.9974 16.3896 21.9585 16.5847 21.883 16.7667C21.8074 16.9486 21.6966 17.1139 21.557 17.253L17.919 20.949C17.6328 21.2346 17.2667 21.4267 16.869 21.5L14.615 21.988C14.5332 22.0061 14.4482 22.0034 14.3677 21.9801C14.2873 21.9568 14.214 21.9136 14.1545 21.8546C14.0951 21.7955 14.0515 21.7225 14.0276 21.6422C14.0037 21.5619 14.0005 21.4769 14.018 21.395L14.498 19.16C14.572 18.763 14.765 18.398 15.052 18.113L18.735 14.439C19.0175 14.1577 19.3999 13.9997 19.7985 13.9997C20.1972 13.9997 20.5796 14.1587 20.862 14.44Z" stroke="black" stroke-width="1.5" stroke-linecap="round" stroke-linejoin="round"/>
</svg>
