<svg width="28" height="28" viewBox="0 0 28 28" fill="none" xmlns="http://www.w3.org/2000/svg">
<path d="M9.5 5C8.90905 5 8.32389 5.1164 7.77792 5.34254C7.23196 5.56869 6.73588 5.90016 6.31802 6.31802C5.90016 6.73588 5.56869 7.23196 5.34254 7.77792C5.1164 8.32389 5 8.90905 5 9.5C5 10.0909 5.1164 10.6761 5.34254 11.2221C5.56869 11.768 5.90016 12.2641 6.31802 12.682C6.73588 13.0998 7.23196 13.4313 7.77792 13.6575C8.32389 13.8836 8.90905 14 9.5 14C10.6935 14 11.8381 13.5259 12.682 12.682C13.5259 11.8381 14 10.6935 14 9.5C14 8.30653 13.5259 7.16193 12.682 6.31802C11.8381 5.47411 10.6935 5 9.5 5ZM6.5 9.5C6.5 9.10603 6.5776 8.71593 6.72836 8.35195C6.87913 7.98797 7.1001 7.65726 7.37868 7.37868C7.65726 7.1001 7.98797 6.87913 8.35195 6.72836C8.71593 6.5776 9.10603 6.5 9.5 6.5C9.89397 6.5 10.2841 6.5776 10.6481 6.72836C11.012 6.87913 11.3427 7.1001 11.6213 7.37868C11.8999 7.65726 12.1209 7.98797 12.2716 8.35195C12.4224 8.71593 12.5 9.10603 12.5 9.5C12.5 10.2956 12.1839 11.0587 11.6213 11.6213C11.0587 12.1839 10.2956 12.5 9.5 12.5C8.70435 12.5 7.94129 12.1839 7.37868 11.6213C6.81607 11.0587 6.5 10.2956 6.5 9.5ZM20 7C19.0717 7 18.1815 7.36875 17.5251 8.02513C16.8687 8.6815 16.5 9.57174 16.5 10.5C16.5 11.4283 16.8687 12.3185 17.5251 12.9749C18.1815 13.6313 19.0717 14 20 14C20.9283 14 21.8185 13.6313 22.4749 12.9749C23.1313 12.3185 23.5 11.4283 23.5 10.5C23.5 9.57174 23.1313 8.6815 22.4749 8.02513C21.8185 7.36875 20.9283 7 20 7ZM18 10.5C18 9.96957 18.2107 9.46086 18.5858 9.08579C18.9609 8.71071 19.4696 8.5 20 8.5C20.5304 8.5 21.0391 8.71071 21.4142 9.08579C21.7893 9.46086 22 9.96957 22 10.5C22 11.0304 21.7893 11.5391 21.4142 11.9142C21.0391 12.2893 20.5304 12.5 20 12.5C19.4696 12.5 18.9609 12.2893 18.5858 11.9142C18.2107 11.5391 18 11.0304 18 10.5ZM2 18.25C2 17.6533 2.23705 17.081 2.65901 16.659C3.08097 16.2371 3.65326 16 4.25 16H14.75C15.3467 16 15.919 16.2371 16.341 16.659C16.7629 17.081 17 17.6533 17 18.25V18.781C16.9992 18.8619 16.9936 18.9428 16.983 19.023C16.9605 19.2293 16.9237 19.4338 16.873 19.635C16.7074 20.2916 16.4126 20.9086 16.006 21.45C14.992 22.803 13.058 24 9.5 24C5.942 24 4.008 22.803 2.994 21.45C2.58773 20.9085 2.29334 20.2915 2.128 19.635C2.06256 19.3736 2.02072 19.1069 2.003 18.838L2 18.781V18.25ZM3.5 18.745V18.763L3.509 18.863C3.519 18.957 3.539 19.098 3.583 19.271C3.69959 19.7335 3.90694 20.1683 4.193 20.55C4.867 21.447 6.308 22.5 9.5 22.5C12.692 22.5 14.133 21.447 14.806 20.55C15.156 20.084 15.33 19.618 15.416 19.271C15.4582 19.1044 15.4859 18.9344 15.499 18.763L15.5 18.745V18.25C15.5 18.0511 15.421 17.8603 15.2803 17.7197C15.1397 17.579 14.9489 17.5 14.75 17.5H4.25C4.05109 17.5 3.86032 17.579 3.71967 17.7197C3.57902 17.8603 3.5 18.0511 3.5 18.25V18.745ZM17.1 21.62C17.873 21.857 18.827 22 19.998 22C22.768 22 24.316 21.204 25.157 20.244C25.4928 19.8637 25.7418 19.4151 25.887 18.929C25.9438 18.7326 25.9803 18.5309 25.996 18.327L25.998 18.28V18.25C25.998 17.6533 25.7609 17.081 25.339 16.659C24.917 16.2371 24.3447 16 23.748 16H17.094C17.488 16.411 17.776 16.926 17.912 17.5H23.749C23.9462 17.5 24.1355 17.5776 24.2758 17.7161C24.4162 17.8546 24.4964 18.0428 24.499 18.24L24.494 18.286C24.484 18.3614 24.4683 18.436 24.447 18.509C24.3626 18.7854 24.2193 19.0403 24.027 19.256C23.556 19.796 22.48 20.5 19.998 20.5C19.057 20.5 18.318 20.399 17.737 20.243C17.5838 20.7271 17.3697 21.1898 17.1 21.62Z" fill="black"/>
</svg>
