<svg width="28" height="28" viewBox="0 0 28 28" fill="none" xmlns="http://www.w3.org/2000/svg">
<path d="M2.004 11.75C2.004 10.7554 2.39909 9.80161 3.10235 9.09835C3.80561 8.39509 4.75944 8 5.754 8H22.25C23.2446 8 24.1984 8.39509 24.9016 9.09835C25.6049 9.80161 26 10.7554 26 11.75V16.25C26 17.2446 25.6049 18.1984 24.9016 18.9017C24.1984 19.6049 23.2446 20 22.25 20H5.755C4.76044 20 3.80661 19.6049 3.10335 18.9017C2.40009 18.1984 2.005 17.2446 2.005 16.25L2.004 11.75ZM5.754 9.5C5.15726 9.5 4.58496 9.73705 4.16301 10.159C3.74105 10.581 3.504 11.1533 3.504 11.75V16.25C3.504 16.8467 3.74105 17.419 4.16301 17.841C4.58496 18.2629 5.15726 18.5 5.754 18.5H22.25C22.8467 18.5 23.419 18.2629 23.841 17.841C24.2629 17.419 24.5 16.8467 24.5 16.25V11.75C24.5 11.1533 24.2629 10.581 23.841 10.159C23.419 9.73705 22.8467 9.5 22.25 9.5H5.754ZM18.75 12.5C18.75 12.8315 18.6183 13.1495 18.3839 13.3839C18.1495 13.6183 17.8315 13.75 17.5 13.75C17.1685 13.75 16.8505 13.6183 16.6161 13.3839C16.3817 13.1495 16.25 12.8315 16.25 12.5C16.25 12.1685 16.3817 11.8505 16.6161 11.6161C16.8505 11.3817 17.1685 11.25 17.5 11.25C17.8315 11.25 18.1495 11.3817 18.3839 11.6161C18.6183 11.8505 18.75 12.1685 18.75 12.5ZM21.5 13.75C21.8315 13.75 22.1495 13.6183 22.3839 13.3839C22.6183 13.1495 22.75 12.8315 22.75 12.5C22.75 12.1685 22.6183 11.8505 22.3839 11.6161C22.1495 11.3817 21.8315 11.25 21.5 11.25C21.1685 11.25 20.8505 11.3817 20.6161 11.6161C20.3817 11.8505 20.25 12.1685 20.25 12.5C20.25 12.8315 20.3817 13.1495 20.6161 13.3839C20.8505 13.6183 21.1685 13.75 21.5 13.75Z" fill="black"/>
</svg>
