<svg width="390" height="133" viewBox="0 0 390 133" fill="none" xmlns="http://www.w3.org/2000/svg">
<path d="M36.6913 73.2405L0 0.0129321H13.643L43.5515 59.5071L36.6913 73.2405ZM82.62 73.2405L59.5717 27.3893L66.4319 13.6559L82.62 45.8512L105.591 0H119.234L82.62 73.2405Z" fill="#161616"/>
<path d="M177.178 12.2605H128.381V-4.57764e-05H177.178V12.2605ZM177.178 42.7505H128.381V30.5674H177.178V42.7505ZM177.178 60.9798V73.2404H128.381V60.9798H177.178Z" fill="#161616"/>
<path d="M235.122 60.9799V73.2405H186.325V0.0129547H198.508V60.9799H235.122Z" fill="#161616"/>
<path d="M306.721 10.8007C313.968 18.0485 317.586 26.6529 317.586 36.6267C317.586 46.7556 313.955 55.3729 306.721 62.4528C299.421 69.6489 290.817 73.2405 280.895 73.2405C270.972 73.2405 262.368 69.6489 255.069 62.4528C247.872 55.1533 244.281 46.5489 244.281 36.6267C244.281 26.7046 247.872 18.1002 255.069 10.8007C262.148 3.60455 270.766 0.0129547 280.895 0.0129547C290.804 0.0129547 299.421 3.60455 306.721 10.8007ZM263.57 19.3792C258.88 24.1207 256.541 29.8699 256.541 36.6267C256.541 43.4353 258.88 49.2103 263.57 53.9517C268.311 58.6415 274.086 60.9799 280.895 60.9799C287.651 60.9799 293.401 58.6415 298.142 53.9517C302.883 49.1586 305.248 43.3836 305.248 36.6267C305.248 29.9215 302.883 24.1724 298.142 19.3792C293.349 14.6378 287.6 12.2735 280.895 12.2735C274.138 12.2606 268.363 14.6378 263.57 19.3792Z" fill="#161616"/>
<path d="M380.685 53.8612L389.354 62.3622C385.982 65.7342 382.08 68.3827 377.662 70.2948C373.36 72.2069 368.618 73.15 363.438 73.15C358.373 73.15 353.658 72.1681 349.304 70.2044C344.95 68.4086 341.022 65.7859 337.534 62.3622C334.098 58.874 331.488 55.0369 329.692 50.8381C327.728 46.3163 326.746 41.5748 326.746 36.6137V36.5362C326.746 31.5235 327.728 26.782 329.692 22.3119C331.604 17.958 334.214 14.108 337.534 10.7877C341.022 7.35114 344.937 4.74142 349.304 2.94561C353.658 0.981852 358.373 -4.57764e-05 363.438 -4.57764e-05C368.618 -4.57764e-05 373.36 0.956004 377.662 2.85517C382.08 4.76725 385.969 7.40282 389.354 10.7877L380.685 19.2887C375.84 14.599 370.091 12.2605 363.438 12.2605C360.117 12.2605 356.952 12.8549 353.955 14.0564C350.854 15.4258 348.231 17.1958 346.113 19.3662C343.878 21.7047 342.159 24.3015 340.958 27.1309C339.653 30.0765 338.994 33.203 338.994 36.5233C338.994 39.7919 339.653 42.9572 340.958 46.0062C342.159 48.9001 343.878 51.4582 346.113 53.6933C348.619 56.1997 351.229 57.9696 353.955 59.0032C356.9 60.2564 360.053 60.8894 363.438 60.8894C370.078 60.8894 375.827 58.551 380.685 53.8612ZM390 30.5674V42.7505H363.36V30.5674H390Z" fill="#161616"/>
<path d="M187.191 110.772C185.343 111.728 184.155 112.981 182.514 113.498C181.648 113.769 180.834 114.053 180.072 113.291C179.284 112.503 179.284 111.65 179.736 110.681C179.969 110.19 180.524 109.622 180.072 109.092C179.62 108.575 178.987 109.027 178.431 109.118C175.641 109.57 172.876 110.371 169.995 109.958C169.103 109.828 168.677 110.449 168.186 110.965C167.282 111.909 166.507 113.007 165.241 113.536C163.341 114.35 161.869 113.523 162.062 111.495C162.243 109.609 161.494 109.919 160.396 110.436C157.282 111.883 154.104 113.123 150.68 113.717C146.779 114.402 145.177 112.748 146.301 108.963C147.373 105.358 149.427 102.219 151.313 99.002C153.161 95.8496 155.086 92.7489 157.037 89.6612C157.411 89.0798 157.734 87.7879 158.703 88.4597C159.634 89.1057 158.587 89.8937 158.212 90.5009C155.112 95.5395 151.959 100.552 149.22 105.798C148.484 107.219 147.735 108.64 147.489 110.268C147.27 111.728 147.799 112.477 149.363 112.477C150.706 112.477 151.998 112.193 153.2 111.715C157.579 109.984 162.23 108.847 165.732 105.307C167.101 103.924 169.465 104.803 169.711 106.779C169.917 108.42 170.667 108.692 172.023 108.575C176.558 108.201 181.054 107.813 184.646 104.467C185.912 103.291 187.578 103.162 188.844 104.325C189.684 105.087 191.428 104.17 191.454 105.617C191.467 106.599 190.576 107.568 190.123 108.562C189.71 109.48 189.025 110.281 188.909 111.327C189.361 111.728 189.762 111.482 190.136 111.288C193.47 109.596 196.997 108.407 200.498 107.141C200.911 106.986 201.312 106.779 201.738 106.702C202.733 106.534 203.624 104.816 204.257 105.578C205.071 106.547 203.482 107.529 203.043 108.562C202.552 109.751 201.131 111.03 201.854 112.089C202.591 113.175 204.219 112.141 205.317 111.818C210.782 110.242 216.221 108.537 221.195 105.656C223.365 104.402 225.755 103.692 228.275 103.537C229.347 103.472 230.484 103.601 230.536 104.984C230.574 106.211 229.592 106.935 228.598 107.425C227.99 107.723 227.848 107.154 227.977 106.702C228.133 106.159 228.417 105.656 228.791 104.816C226.311 105.19 224.192 105.668 221.647 107.077C224.929 107.865 227.319 109.635 230.471 108.743C233.417 107.903 236.466 107.464 239.463 106.844C240.781 106.573 242.241 106.65 242.693 104.829C243.21 102.774 243.222 100.914 241.556 99.3637C239.993 97.9038 238.029 97.3612 235.975 97.0641C233.727 96.7411 231.479 96.5085 229.205 96.5473C228.675 96.5602 227.861 96.7669 227.822 95.9142C227.758 94.8807 228.662 95.1003 229.257 95.1003C234.657 95.0874 240.07 95.0357 245.47 95.152C247.447 95.1907 248.752 94.6998 249.605 92.7748C250.432 90.9144 251.62 89.2219 252.628 87.439C252.938 86.8964 253.364 86.315 253.971 86.6639C254.708 87.0773 254.075 87.7103 253.842 88.1496C252.938 89.8162 251.995 91.4699 251 93.0848C250.121 94.506 250.277 95.1649 252.124 95.1649C257.02 95.1649 261.917 95.2166 266.801 95.3199C267.705 95.3328 269.294 94.8677 269.255 96.2372C269.229 97.2966 267.679 96.8703 266.801 96.8961C261.684 97.0382 256.581 97.0382 251.478 96.5602C249.695 96.3922 248.739 97.064 247.899 98.6661C242.512 108.95 237.37 119.35 232.693 129.983C232.512 130.383 232.331 130.784 232.138 131.171C231.853 131.766 231.517 132.606 230.768 132.231C229.928 131.817 230.639 131.042 230.871 130.513C233.753 123.807 236.789 117.167 240.096 110.642C240.419 110.009 241.078 109.195 240.664 108.64C240.148 107.955 239.179 108.407 238.404 108.562C236.905 108.847 235.393 109.118 233.895 109.441C231.091 110.061 228.262 110.384 226.337 113.136C225.174 114.802 223.068 115.591 221.014 115.926C219.864 116.107 218.378 116.624 217.849 114.945C217.358 113.394 218.559 112.71 219.696 112.141C220.678 111.663 221.737 111.34 222.719 110.875C223.326 110.578 224.205 110.655 224.541 109.635C222.215 108.756 220.097 107.955 217.487 109.092C213.081 111.004 208.585 112.774 203.805 113.614C202.668 113.808 201.467 114.35 200.537 113.239C199.606 112.128 200.369 111.03 200.704 109.945C200.808 109.622 200.872 109.273 201.079 108.446C196.015 110.229 191.286 111.818 187.126 114.699C186.519 115.113 186.222 116.004 185.834 116.702C183.276 121.378 180.731 126.081 177.126 130.073C176.287 131.003 175.447 131.908 174.271 132.412C172.359 133.226 170.835 132.089 171.145 130.022C171.364 128.549 172.14 127.296 172.941 126.055C175.912 121.443 179.775 117.709 184.31 114.647C185.692 113.769 186.739 112.735 187.191 110.772ZM183.496 117.477C179.077 120.539 175.537 124.35 173.044 129.053C172.708 129.686 172.333 130.5 173.044 131.055C173.806 131.649 174.413 130.965 174.93 130.487C178.858 126.882 181.222 122.205 183.496 117.477ZM188.586 106.573C188.56 105.384 187.01 104.751 185.847 105.449C183.793 106.676 182.372 108.498 181.364 110.655C181.157 111.108 180.951 111.663 181.416 112.076C181.894 112.503 182.411 112.102 182.811 111.883C184.891 110.772 186.635 109.26 188.121 107.438C188.353 107.154 188.47 106.805 188.586 106.573ZM241.246 96.5731C241.181 96.7281 241.13 96.8961 241.078 97.0511C241.517 97.4 241.969 97.71 242.37 98.0847C242.796 98.4723 243.21 98.8986 243.558 99.3508C245.07 101.289 245.07 101.289 246.129 99.1828C247.434 96.586 247.434 96.586 244.502 96.5731C243.416 96.5731 242.331 96.5731 241.246 96.5731ZM167.217 109.738C166.868 108.86 166.132 108.381 165.486 108.511C163.936 108.821 163.832 110.332 163.509 111.547C163.354 112.128 163.832 112.555 164.452 112.283C165.667 111.753 166.61 110.875 167.217 109.738ZM219.347 114.35C221.88 114.57 224.257 113.498 225.251 111.65C223.159 112.361 220.962 112.516 219.347 114.35Z" fill="#161616"/>
<path d="M295.353 104.945C292.911 105.139 290.792 105.72 288.286 107.089C291.619 107.89 294.113 109.635 297.407 108.73C300.831 107.787 304.397 107.322 307.911 106.65C308.518 106.534 309.396 106.121 309.603 106.986C309.836 107.942 308.802 107.826 308.234 107.942C304.461 108.756 300.689 109.544 296.89 110.294C295.689 110.526 294.823 111.017 294.061 112.063C292.511 114.208 290.25 115.448 287.653 115.926C286.555 116.12 285.159 116.469 284.591 115.035C283.984 113.498 285.172 112.735 286.309 112.193C287.989 111.392 289.733 110.72 291.891 109.816C288.945 108.679 286.632 107.89 283.868 109.363C279.811 111.521 275.431 112.994 270.858 113.717C269.927 113.859 268.958 113.95 268.028 113.859C266.698 113.743 266.065 112.839 265.716 111.585C265.483 110.746 266.762 109.57 265.393 109.182C264.708 108.989 263.778 109.699 262.964 110.022C259.166 111.534 255.328 112.929 251.298 113.691C250.225 113.898 249.088 114.208 248.261 113.162C247.499 112.206 247.99 111.185 248.339 110.255C248.933 108.679 249.838 107.257 250.871 105.914C251.168 105.526 251.556 104.997 252.124 105.462C252.551 105.81 252.228 106.276 252.021 106.637C251.285 107.981 250.471 109.286 249.799 110.655C249.205 111.87 249.36 112.697 251.026 112.309C257.305 110.862 263.377 108.834 268.984 105.617C269.876 105.113 270.703 104.48 271.736 104.325C273.144 104.118 273.958 105.139 273.584 106.482C273.454 106.934 273.248 107.348 272.783 107.425C272.072 107.555 272.227 106.934 272.15 106.56C271.93 105.475 271.284 105.798 270.677 106.133C268.868 107.154 267.757 108.756 267.163 110.707C266.84 111.792 267.447 112.412 268.519 112.438C269.54 112.464 270.586 112.477 271.555 112.244C277.111 110.901 282.433 108.963 287.343 105.965C289.694 104.531 292.278 103.782 294.991 103.511C296.128 103.395 297.317 103.614 297.213 105.177C297.136 106.198 296.399 107.025 295.508 107.296C294.061 107.723 294.668 106.754 294.901 106.121C295.03 105.772 295.159 105.449 295.353 104.945ZM292.381 111.573C290.185 111.999 288.506 112.606 286.917 113.485C286.606 113.653 286.206 113.872 286.348 114.299C286.49 114.738 286.955 114.634 287.278 114.557C289.126 114.092 290.844 113.42 292.381 111.573Z" fill="#161616"/>
<path d="M88.835 109.816C86.9746 111.056 85.3855 112.206 83.693 113.2C82.9308 113.653 81.9747 114.299 81.0575 113.511C80.1531 112.735 80.2694 111.715 80.6182 110.681C81.135 109.144 81.8714 107.723 82.8662 106.444C83.2538 105.953 83.6414 105.087 84.3778 105.552C85.2175 106.082 84.3648 106.689 84.0935 107.206C83.5122 108.304 82.8533 109.35 82.2848 110.462C82.0652 110.888 81.7034 111.443 82.2202 111.857C82.7112 112.257 83.1892 111.831 83.6155 111.598C85.8506 110.319 87.8014 108.679 89.7652 107.038C90.5662 106.495 91.4447 105.953 91.729 106.146C92.4008 106.612 91.7935 107.206 91.3414 107.723C91.1992 107.891 90.2691 108.821 90.1399 110.63C90.1011 111.146 90.1399 111.753 90.6179 112.232C91.0442 112.658 91.5998 112.193 92.039 111.986C94.5842 110.759 96.5608 108.782 98.5763 106.883C99.5194 105.991 100.346 105.591 101.677 106.069C104.778 107.167 106.173 107.697 111.418 107.077C113.834 106.482 113.847 105.991 114.919 105.022C116.173 103.898 117.943 102.749 119.338 103.937C119.971 104.48 120.165 104.777 120.165 105.591C120.152 107.361 118.446 108.058 116.999 108.614C116.121 108.95 115.178 109.221 114.248 109.286C113.124 109.363 112.646 109.906 112.671 110.94C112.697 112.038 113.408 112.412 114.428 112.464C117.348 112.593 120.061 111.663 122.723 110.694C125.668 109.609 128.511 108.252 131.405 107.051C131.934 106.831 132.658 106.082 133.084 106.986C133.485 107.852 132.477 108.02 131.96 108.278C127.064 110.759 122.025 112.865 116.56 113.769C115.85 113.885 115.1 113.976 114.377 113.937C111.948 113.795 110.798 112.554 111.367 110.216C111.819 108.369 111.056 108.381 109.661 108.343C105.294 108.214 104.661 108.265 101.419 107.555C100.333 107.322 99.7649 107.671 99.1318 108.33C97.5685 109.971 95.8244 111.43 93.8865 112.632C90.2561 114.854 88.99 114.195 88.835 109.816ZM114.506 107.697C116.651 107.645 119.919 106.392 118.756 104.932C117.439 103.679 115.514 105.707 114.506 107.697Z" fill="#161616"/>
<path d="M206.767 103.078C207.048 102.384 206.869 101.656 206.367 101.452C205.864 101.248 205.229 101.646 204.947 102.34C204.665 103.034 204.844 103.762 205.347 103.966C205.849 104.17 206.485 103.773 206.767 103.078Z" fill="#161616"/>
<path d="M253.967 104.02C254.106 103.677 253.812 103.233 253.31 103.029C252.807 102.825 252.287 102.938 252.147 103.282C252.008 103.626 252.302 104.07 252.804 104.274C253.307 104.478 253.827 104.364 253.967 104.02Z" fill="#161616"/>
</svg>
